<svg width="63" height="30" viewBox="0 0 63 30" fill="none" xmlns="http://www.w3.org/2000/svg">
<path d="M0 10.7992C0 16.8152 4.32314 21.7773 10.2616 21.7773H13.5825V16.5002H11.2716C8.16681 16.5002 5.76943 14.653 5.76943 10.7992C5.76943 6.94542 8.17467 5.09823 11.2716 5.09823H13.5825V0H10.2655C4.27205 0 0 5.41712 0 10.7992Z" fill="#00529C"/>
<path d="M24.6338 21.8225C27.0076 21.0752 28.6897 19.2323 28.6897 16.2666V6.53711H23.8124V15.1284C23.8124 16.5028 23.5569 17.4514 22.1028 17.4514C20.5818 17.4514 20.2674 16.3286 20.2674 15.3297V6.53711H15.3901V16.2666C15.3901 18.9536 16.6242 20.9475 19.5679 21.8225V29.9994H24.6338V21.8225Z" fill="#00529C"/>
<path d="M62.9961 0H57.9302V21.7657H62.9961V0Z" fill="#00529C"/>
<path d="M35.3709 15.0616V10.9861H38.9788V6.40901H35.3985V2.77686H30.4937V16.3099C30.4937 19.1954 32.329 21.7543 36.1923 21.7543H39.0417V17.111C38.6919 17.1421 38.3146 17.1732 37.9648 17.1732C35.9998 17.111 35.3709 16.8155 35.3709 15.0616Z" fill="#00529C"/>
<path d="M48.1715 17.7523C46.1121 17.7523 44.7523 15.7806 44.7523 13.8985C44.7523 12.0824 45.892 9.98242 47.9789 9.98242C48.6737 9.95654 49.3596 10.1425 49.944 10.5152L45.7938 13.2218L47.7274 16.2317L55.3597 11.0285C53.713 8.04968 51.3667 6.17139 47.8217 6.17139C43.5811 6.17139 39.875 9.77632 39.875 14.1629C39.875 18.5495 43.5811 22.1544 47.8217 22.1544C51.6536 22.1544 54.896 19.6461 56.3383 16.1967L52.699 14.3496C51.9405 16.0956 50.0698 17.7523 48.1715 17.7523Z" fill="#00529C"/>
</svg>
